<!-- <svg width="27" height="39" viewBox="0 0 27 39" fill="none" xmlns="http://www.w3.org/2000/svg"><path d="M13.557 1c8.596 0 14.203 9.024 10.397 16.73L14.64 36.591a.953.953 0 0 1-1.7.017L3.261 17.93C-.738 10.21 4.864 1 13.557 1z"/></svg> -->
<svg width="27" height="39" xmlns="http://www.w3.org/2000/svg"><path d="M23.856 17.929a11.733 11.733 0 0 0 1.213-5.196C25.07 6.253 19.816 1 13.336 1c-1.835 0-3.643.44-5.272 1.285C2.444 5.197.248 12.113 3.16 17.733l9.736 18.792a1 1 0 0 0 1.784-.017l9.176-18.58z" fill="#4481C3" stroke="#FFF" stroke-width="2" fill-rule="evenodd"/></svg>